<svg
  width="58"
  height="16"
  view-box="0 0 58 16"
  fill="none"
  xmlns="http://www.w3.org/2000/svg"
>
  <rect width="58" height="16" rx="2" fill="#066BC8" />
  <path
    fill-rule="evenodd"
    clip-rule="evenodd"
    d="M42.8888 3.54146C42.4892 3.54146 42.1467 3.86497 42.1467 4.28363V4.43587H47.0564V5.787H43.9736C43.4027 5.787 42.9459 6.24373 42.9459 6.81463V10.4684C42.9459 10.9251 43.3075 11.2867 43.7642 11.2867V7.08105C43.7642 6.85269 43.9545 6.68142 44.1639 6.68142H47.0564V12.9994H47.8747V6.66239H51.0527C51.2811 6.66239 51.4524 6.85269 51.4524 7.06202V9.82137C51.4524 10.1259 51.205 10.3732 50.9005 10.3732H49.7777L49.987 11.1915H51.1669C51.7759 11.1915 52.2707 10.6968 52.2707 10.0878V6.81463C52.2707 6.24373 51.8139 5.787 51.243 5.787H47.8747V4.43587H52.8035V3.54146H42.8888ZM46.79 2.72317C46.79 2.72317 46.79 2.7422 46.809 2.7422L46.9422 3.1228H48.0079L47.5893 2.26645C47.5131 2.13324 47.3609 2.03809 47.1896 2.03809C46.9422 2.03809 46.7329 2.24742 46.7329 2.49481C46.7329 2.58996 46.7519 2.66608 46.79 2.72317Z"
    fill="white"
  />
  <path
    fill-rule="evenodd"
    clip-rule="evenodd"
    d="M36.7421 8.71762C36.7421 8.41314 36.8563 8.27993 37.1798 8.27993H37.313H39.806C40.1105 8.27993 40.2437 8.39411 40.2437 8.71762V10.5064H36.7421V8.71762ZM36.8944 7.48067C36.2854 7.48067 35.9048 7.91836 35.9048 8.52732V11.3247H41.0049V8.47023C41.0049 7.86127 40.6433 7.48067 40.0153 7.48067H36.8944ZM36.0951 2.72315V3.54145H37.256C37.2179 4.2075 37.1037 4.74034 36.8373 5.159C36.628 5.55863 36.3425 5.88214 35.9619 6.1105L36.3235 6.94782C36.9324 6.45304 37.3511 5.93923 37.5985 5.42542C37.8649 4.93064 37.941 4.37877 38.0362 3.54145H39.8631C40.1675 3.54145 40.3008 3.65563 40.3008 3.97914V5.57766C40.3008 5.88214 40.0534 6.12953 39.7489 6.12953H39.1019L38.7403 6.94782H40.0153C40.6243 6.94782 41.1191 6.45304 41.1191 5.84408V3.69369C41.1191 3.08473 40.7575 2.70412 40.1295 2.70412H36.0951V2.72315ZM32.5936 2.41867V3.76981H31.1473C30.7286 3.76981 30.3861 4.11235 30.3861 4.53101H32.5936V6.12953H31.2044C30.7477 6.12953 30.3861 6.4911 30.3861 6.94782H32.5936L32.5175 10.6397C31.9846 10.3161 31.6231 10.0117 31.4518 9.72621V8.10866C31.4518 7.8803 31.2615 7.70903 31.0522 7.70903C30.8238 7.70903 30.6525 7.89933 30.6525 8.10866V10.5635C30.6335 11.0012 30.4242 11.7053 30.0245 12.6949L30.8999 12.9803C31.1854 12.2762 31.4137 11.5531 31.4708 11.0203C31.8895 11.3628 33.6022 13.0374 36.5328 12.9994C38.4739 12.9803 40.1295 12.9803 41.5187 12.9994L41.69 12.105C38.9877 12.105 37.3321 12.105 36.7612 12.105C34.4585 12.105 33.507 11.2867 33.4499 11.2486V9.28852H35.1436V8.47023H33.4499V6.94782H35.2959V6.12953H33.4499V4.55004H35.1436V3.78884H33.4499V2.4377C33.4499 2.20934 33.2596 2.01904 33.0313 2.01904C32.7649 2.01904 32.5936 2.19031 32.5936 2.41867Z"
    fill="white"
  />
  <path
    fill-rule="evenodd"
    clip-rule="evenodd"
    d="M7.87354 11.515H8.71086C8.71086 11.2867 8.52056 11.0964 8.2922 11.0964C8.06384 11.0964 7.87354 11.2867 7.87354 11.515ZM13.3161 7.34744V8.18476H15.3714C15.5807 8.18476 15.771 8.37507 15.771 8.60343C15.771 8.75567 15.6378 9.49784 14.9147 10.3732C14.2676 9.44075 14.1535 8.60343 14.1535 8.60343H13.3352C13.3352 8.60343 13.4113 9.74523 14.3628 10.9632C13.868 11.4199 13.4684 11.8385 12.574 12.2762L12.9165 12.9994C13.868 12.5236 14.3438 12.0669 14.8956 11.5721C15.4475 12.124 15.9042 12.5997 16.9128 12.9994L17.2553 12.2762C16.3229 11.9337 15.9423 11.496 15.4475 11.0012C16.5893 9.68814 16.6274 8.47022 16.6274 8.18476C16.6274 7.72804 16.2658 7.34744 15.8091 7.34744H13.3161ZM13.2781 2.91344V3.75076H15.162C15.3904 3.75076 15.5807 3.94106 15.5807 4.16943V5.50153H13.2781V6.33885H16.418V3.75076C16.418 3.29404 16.0565 2.91344 15.5807 2.91344H13.2781ZM10.3855 3.7127H11.4322C11.6605 3.7127 11.8508 3.90301 11.8508 4.13137V5.44444H10.3855V3.7127ZM9.54818 12.9613H10.3855V10.2781H13.2019C13.2019 10.2781 12.9165 9.84038 12.8213 9.44075H10.3855V8.26089H12.6881V7.42356H10.3855V6.2437H12.6881V3.76979V3.69367C12.6881 3.23695 12.3266 2.85635 11.8508 2.85635H9.54818V12.9613ZM5.85635 8.86985H6.46531V4.32167H5.85635V8.86985ZM7.28361 4.32167H7.64518C7.77839 4.32167 7.89257 4.41682 7.89257 4.58809V8.88888H7.28361V4.32167ZM6.44628 2.41866V3.50337H5.41866C5.1903 3.50337 5.01903 3.69367 5.01903 3.92203V8.88888V9.7262H6.44628V12.143H5.41866C5.1903 12.143 5 12.3333 5 12.5617C5 12.79 5.1903 12.9803 5.41866 12.9803H8.71086V11.5341H7.87354V12.143H7.26457V9.70717H8.69183V4.32167C8.69183 3.86495 8.33026 3.50337 7.85451 3.50337H7.24554V2.41866C7.24554 2.1903 7.05524 2 6.82688 2C6.63658 2 6.44628 2.1903 6.44628 2.41866Z"
    fill="white"
  />
  <path
    fill-rule="evenodd"
    clip-rule="evenodd"
    d="M19.615 4.26458C19.615 4.03621 19.7863 3.84592 20.0337 3.84592H23.2878V5.90116H19.615V4.26458ZM23.2878 2.41866V3.02762H20.0337C19.3296 3.02762 18.7777 3.59852 18.7777 4.28361V5.61571V7.67095C18.7777 10.9251 17.5408 12.3333 17.5408 12.3333L18.1878 12.9042C19.7102 11.1725 19.596 8.27991 19.596 8.27991V6.73848H26.6562H27.0368C27.5506 6.73848 27.3603 7.15714 27.3603 7.15714C26.7133 8.50827 25.4953 9.45978 24.2584 10.24C22.9834 9.44075 21.8796 8.64148 21.0423 7.15714H20.1859C20.1859 7.15714 20.7759 8.94597 23.4781 10.6967C21.4419 11.7244 19.4628 12.1811 19.4628 12.1811L19.7673 12.9613C21.9177 12.4094 23.2117 11.8385 24.2393 11.2105C25.4763 11.9337 27.0177 12.5426 29.073 12.9613L29.3013 12.1811C29.3013 12.1811 27.208 11.8576 25.0196 10.6967C28.2737 8.64149 28.2547 6.73848 28.2547 6.73848C28.2547 6.30079 27.8931 5.92019 27.4364 5.92019H24.0681V3.84592H27.3793C27.4174 3.84592 27.5696 3.86494 27.5696 3.97912C27.5696 3.97912 27.5696 4.15039 27.2461 4.58809L27.8931 5.12093C27.8931 5.12093 28.3689 4.49294 28.464 4.03622C28.464 4.03622 28.5782 3.59852 28.426 3.35113C28.2166 3.00859 27.6838 3.00859 27.6838 3.00859H27.3603H24.049V2.41866C24.049 2.1903 23.8587 2 23.6304 2C23.4781 2.01903 23.2878 2.1903 23.2878 2.41866Z"
    fill="white"
  />
</svg>
